<svg width="418" height="359" viewBox="0 0 418 359" fill="none" xmlns="http://www.w3.org/2000/svg">
<g id="mention_isometric 2">
<g id="mention_isometric">
<path id="Path" d="M175.018 355.203L-44.6873 225.211C-51.682 221.273 -57.6775 214.822 -50.8621 210.589L169.625 83.3669C172.93 81.3148 177.952 79.968 181.321 81.9304L411.916 215.937C418.91 220.003 420.166 231.329 413.197 235.433L203.971 354.998C195.035 360.187 184.026 360.265 175.018 355.203Z" fill="#5B36A0"/>
<path id="Path Copy" d="M175.018 349.203L-44.6873 219.211C-51.682 215.273 -57.6775 208.822 -50.8621 204.589L169.625 77.3669C172.93 75.3148 177.952 73.968 181.321 75.9304L411.916 209.937C418.91 214.003 420.166 225.329 413.197 229.433L203.971 348.998C195.035 354.187 184.026 354.265 175.018 349.203Z" fill="#6862E6"/>
<g id="Path_2" style="mix-blend-mode:multiply" opacity="0.25">
<path d="M193.133 177.693L149.781 202.46C149.781 202.46 216.564 243.26 230.22 249.006L255.188 213.093" fill="url(#paint0_linear_0_223)"/>
</g>
<g id="Path_3" style="mix-blend-mode:multiply" opacity="0.25">
<path d="M178.157 296.513L134.792 271.798L91.4276 296.565C91.4276 296.565 114.013 310.366 135.599 323.038C149.307 313.328 163.027 303.517 178.157 296.513Z" fill="url(#paint1_linear_0_223)"/>
</g>
<g id="Path_4" style="mix-blend-mode:multiply" opacity="0.46">
<path d="M84.7275 143.883L57.2227 159.595C57.2227 159.595 59.5543 173.999 73.2106 179.745L109.222 156.658" fill="url(#paint2_linear_0_223)"/>
</g>
<ellipse id="Oval" cx="98.1917" cy="147.898" rx="16.59" ry="11.6974" fill="#68E1FD"/>
<ellipse id="Oval_2" cx="98.1789" cy="140.997" rx="12.4265" ry="5.09196" fill="#974C26"/>
<path id="Shape" fill-rule="evenodd" clip-rule="evenodd" d="M97.4743 125.619C97.6536 127.915 97.7305 130.21 97.7305 132.506C97.7177 135.379 97.5768 138.252 97.2693 141.113C96.2829 139.74 95.3092 138.304 94.2844 136.688C92.9649 134.623 91.735 132.506 90.6077 130.339C89.5596 128.411 88.6643 126.404 87.9302 124.336C87.1138 122.09 86.4588 119.788 85.9702 117.448C85.8421 116.884 85.7268 116.217 85.6243 115.602V115.383V114.845C85.5218 113.639 85.4193 112.357 85.4193 111.074C85.3624 106.712 86.2041 102.385 87.8918 98.3633C92.3772 104.876 95.4014 112.284 96.7569 120.078C96.8423 120.54 96.9234 121.006 97.0003 121.476C97.0003 121.386 97.1796 122.322 97.1796 122.669L97.3077 123.836C97.3675 124.426 97.423 125.02 97.4743 125.619ZM91.21 106.687C91.2099 106.687 91.2098 106.687 91.2098 106.687H91.197C91.2013 106.687 91.2056 106.687 91.21 106.687ZM91.21 106.687C91.5252 106.669 91.8412 106.704 92.145 106.79C91.8375 106.448 91.5258 106.114 91.2098 105.79C91.2755 106.085 91.2756 106.391 91.21 106.687Z" fill="#999A1C"/>
<path id="Shape_2" fill-rule="evenodd" clip-rule="evenodd" d="M105.494 128.338C104.405 130.428 103.278 132.34 101.996 134.276C100.446 136.7 98.7297 139.035 97.0259 141.305C96.9106 139.625 96.9106 137.88 96.9106 135.969C96.9106 133.52 97.0131 131.083 97.2437 128.646C97.4018 126.456 97.7316 124.281 98.2301 122.143C98.7534 119.809 99.4427 117.516 100.293 115.281C100.523 114.691 100.767 114.114 101.01 113.537L101.01 113.537L101.074 113.331L101.33 112.857C101.907 111.741 102.522 110.638 103.188 109.573C105.502 105.868 108.554 102.68 112.155 100.21C112.416 108.124 110.96 116 107.889 123.297C107.71 123.716 107.526 124.144 107.339 124.58L106.839 125.683L106.314 126.747C106.049 127.278 105.776 127.808 105.494 128.338ZM110.887 108.239C110.801 108.529 110.652 108.796 110.452 109.022C110.702 109.154 110.93 109.322 111.131 109.522C111.062 109.112 110.981 108.684 110.887 108.239Z" fill="#999A1C"/>
<path id="Shape_3" fill-rule="evenodd" clip-rule="evenodd" d="M105.75 137.919C104.478 138.663 103.196 139.355 101.907 139.997C100.293 140.805 98.6401 141.523 96.9875 142.216C97.4743 141.279 98.0251 140.317 98.6401 139.291C99.4471 138.009 100.293 136.726 101.202 135.443C101.993 134.312 102.871 133.244 103.828 132.25C104.865 131.158 105.978 130.142 107.159 129.21L108.107 128.505L108.21 128.415L108.504 128.235C109.183 127.825 109.862 127.427 110.567 127.068C113.004 125.814 115.673 125.076 118.407 124.9C115.997 129.25 112.676 133.026 108.671 135.969L107.954 136.495L107.339 136.931L106.711 137.329L105.75 137.919ZM115.102 128.812C114.963 128.941 114.796 129.038 114.615 129.095V129.107C114.701 129.268 114.761 129.441 114.794 129.62C114.906 129.355 115.008 129.086 115.102 128.812Z" fill="#999A1C"/>
<path id="Shape_4" fill-rule="evenodd" clip-rule="evenodd" d="M97.4743 125.619C97.6536 127.915 97.7305 130.21 97.7305 132.506C97.7177 135.379 97.5768 138.252 97.2693 141.113C96.2829 139.74 95.3092 138.304 94.2844 136.688C92.9649 134.623 91.735 132.506 90.6077 130.339C89.5596 128.411 88.6643 126.404 87.9302 124.336C87.1138 122.09 86.4588 119.788 85.9702 117.448C85.8421 116.884 85.7268 116.217 85.6243 115.602V115.383V114.845C85.5218 113.639 85.4193 112.357 85.4193 111.074C85.3624 106.712 86.2041 102.385 87.8918 98.3633C92.3772 104.876 95.4014 112.284 96.7569 120.078C96.8423 120.54 96.9234 121.006 97.0003 121.476C97.0003 121.386 97.1796 122.322 97.1796 122.669L97.3077 123.836C97.3675 124.426 97.423 125.02 97.4743 125.619ZM91.21 106.687C91.2099 106.687 91.2098 106.687 91.2098 106.687H91.197C91.2013 106.687 91.2056 106.687 91.21 106.687ZM91.21 106.687C91.5252 106.669 91.8412 106.704 92.145 106.79C91.8375 106.448 91.5258 106.114 91.2098 105.79C91.2755 106.085 91.2756 106.391 91.21 106.687Z" fill="#999A1C"/>
<path id="Shape_5" fill-rule="evenodd" clip-rule="evenodd" d="M105.494 128.338C104.405 130.428 103.278 132.34 101.996 134.276C100.446 136.7 98.7297 139.035 97.0259 141.305C96.9106 139.625 96.9106 137.88 96.9106 135.969C96.9106 133.52 97.0131 131.083 97.2437 128.646C97.4018 126.456 97.7316 124.281 98.2301 122.143C98.7534 119.809 99.4427 117.516 100.293 115.281C100.523 114.691 100.767 114.114 101.01 113.537L101.01 113.537L101.074 113.331L101.33 112.857C101.907 111.741 102.522 110.638 103.188 109.573C105.502 105.868 108.554 102.68 112.155 100.21C112.416 108.124 110.96 116 107.889 123.297C107.71 123.716 107.526 124.144 107.339 124.58L106.839 125.683L106.314 126.747C106.049 127.278 105.776 127.808 105.494 128.338ZM110.887 108.239C110.801 108.529 110.652 108.796 110.452 109.022C110.702 109.154 110.93 109.322 111.131 109.522C111.062 109.112 110.981 108.684 110.887 108.239Z" fill="#999A1C"/>
<path id="Shape_6" fill-rule="evenodd" clip-rule="evenodd" d="M105.75 137.919C104.478 138.663 103.196 139.355 101.907 139.997C100.293 140.805 98.6401 141.523 96.9875 142.216C97.4743 141.279 98.0251 140.317 98.6401 139.291C99.4471 138.009 100.293 136.726 101.202 135.443C101.993 134.312 102.871 133.244 103.828 132.25C104.865 131.158 105.978 130.142 107.159 129.21L108.107 128.505L108.21 128.415L108.504 128.235C109.183 127.825 109.862 127.427 110.567 127.068C113.004 125.814 115.673 125.076 118.407 124.9C115.997 129.25 112.676 133.026 108.671 135.969L107.954 136.495L107.339 136.931L106.711 137.329L105.75 137.919ZM115.102 128.812C114.963 128.941 114.796 129.038 114.615 129.095V129.107C114.701 129.268 114.761 129.441 114.794 129.62C114.906 129.355 115.008 129.086 115.102 128.812Z" fill="#999A1C"/>
<path id="Path_5" d="M210.35 168.022L186.356 179.565C184.513 180.452 183.311 182.285 183.231 184.33C183.15 186.375 184.205 188.297 185.971 189.326L242.839 222.545C245.392 224.04 248.669 223.254 250.269 220.763L264.092 199.24" fill="#A1482D"/>
<path id="Path_6" d="M340.854 112.344L149.525 1.96239C146.853 0.424366 143.566 0.428254 140.898 1.97259C138.23 3.51693 136.587 6.36762 136.586 9.45283V124.285C136.586 126.851 137.953 129.222 140.173 130.505L344.146 248.39C345.578 249.221 347.345 249.222 348.778 248.393C350.211 247.565 351.093 246.032 351.09 244.375V130.018C351.084 122.717 347.18 115.976 340.854 112.344Z" fill="#F47B56"/>
<path id="Path_7" d="M149.537 10.6457L335.089 117.525C339.122 119.85 341.608 124.154 341.61 128.812V214.888C341.607 216.564 340.714 218.112 339.265 218.953C337.816 219.793 336.031 219.798 334.577 218.967L145.348 110.304C143.907 109.477 143.017 107.941 143.017 106.277V14.4294C143.017 12.8741 143.844 11.4365 145.188 10.6567C146.532 9.87678 148.189 9.87258 149.537 10.6457Z" fill="white"/>
<ellipse id="Oval_3" cx="226.738" cy="168.465" rx="4.03558" ry="4.61719" transform="rotate(-10.9 226.738 168.465)" fill="#AB643C"/>
<path id="Path_8" opacity="0.32" d="M199.41 127.427L285.639 179.296L328.235 154.503L252.126 110.15" fill="url(#paint3_linear_0_223)"/>
<path id="Path_9" d="M305.97 117.102L212.746 60.1928C211.73 59.6044 210.474 59.6147 209.468 60.2199C208.461 60.8251 207.862 61.9296 207.903 63.1043V95.5287C207.896 96.7218 208.513 97.8317 209.53 98.453L302.742 154.157C303.739 154.724 304.962 154.717 305.952 154.138C306.942 153.559 307.549 152.496 307.546 151.348L308.033 121.117C308.106 119.507 307.321 117.979 305.97 117.102Z" fill="#E2AC00"/>
<path id="Path_10" d="M283.667 133.789C287.01 138.47 292.89 139.779 296.785 136.726C300.679 133.673 301.128 127.402 297.784 122.733C294.44 118.064 288.56 116.743 284.666 119.796C280.771 122.848 280.323 129.107 283.667 133.789Z" fill="white"/>
<path id="Path_11" d="M274.52 111.318L236.497 88.3974C235.82 88.0802 235.014 88.3307 234.635 88.9757C234.257 89.6207 234.431 90.4482 235.037 90.8857L273.059 113.806C273.736 114.123 274.543 113.873 274.921 113.228C275.3 112.583 275.126 111.755 274.52 111.318Z" fill="#F2F2F2"/>
<path id="Path_12" d="M272.957 120.629L220.548 89.0387C219.885 88.8068 219.152 89.0842 218.808 89.6969C218.464 90.3096 218.609 91.081 219.151 91.527L271.496 123.13C272.173 123.448 272.98 123.197 273.358 122.552C273.737 121.907 273.563 121.08 272.957 120.642V120.629Z" fill="#F2F2F2"/>
<path id="Path_13" d="M287.369 123.387L194.196 66.4904C193.18 65.902 191.924 65.9123 190.918 66.5175C189.911 67.1227 189.312 68.2272 189.353 69.4019V101.813C189.338 103.009 189.951 104.124 190.968 104.751L284.179 160.454C285.187 161.034 286.429 161.025 287.427 160.429C288.426 159.833 289.025 158.745 288.996 157.581L289.483 127.35C289.526 125.748 288.723 124.242 287.369 123.387Z" fill="#F47B56"/>
<path id="Path_14" d="M265.065 140.074C268.409 144.755 274.289 146.063 278.184 143.011C282.078 139.958 282.526 133.686 279.183 129.018C275.839 124.349 269.959 123.028 266.065 126.08C262.17 129.133 261.722 135.392 265.065 140.074Z" fill="white"/>
<path id="Path_15" d="M255.918 117.602L217.87 94.6822C217.194 94.3649 216.387 94.6155 216.008 95.2605C215.63 95.9055 215.804 96.7329 216.41 97.1704L254.432 120.091C255.109 120.408 255.916 120.157 256.294 119.512C256.673 118.867 256.499 118.04 255.893 117.602H255.918Z" fill="#F2F2F2"/>
<path id="Path_16" d="M254.343 126.978L201.946 95.3363C201.27 95.0191 200.463 95.2696 200.084 95.9146C199.706 96.5596 199.88 97.3871 200.486 97.8246L252.895 129.415C253.572 129.732 254.378 129.482 254.757 128.837C255.136 128.192 254.962 127.364 254.355 126.927L254.343 126.978Z" fill="#F2F2F2"/>
<path id="Path_17" d="M263.989 127.209L170.791 70.3126C169.774 69.7241 168.519 69.7345 167.512 70.3397C166.506 70.9448 165.907 72.0494 165.948 73.2241V105.636C165.94 106.829 166.558 107.939 167.575 108.56L260.786 164.264C261.794 164.844 263.036 164.834 264.035 164.238C265.033 163.643 265.633 162.554 265.603 161.391L266.09 131.16C266.132 129.565 265.334 128.065 263.989 127.209Z" fill="#68E1FD"/>
<path id="Path_18" d="M263.989 127.209L170.791 70.3126C169.774 69.7241 168.519 69.7345 167.512 70.3397C166.506 70.9448 165.907 72.0494 165.948 73.2241V105.636C165.94 106.829 166.558 107.939 167.575 108.56L260.786 164.264C261.794 164.844 263.036 164.834 264.035 164.238C265.033 163.643 265.633 162.554 265.603 161.391L266.09 131.16C266.132 129.565 265.334 128.065 263.989 127.209Z" fill="#68E1FD"/>
<path id="Path_19" d="M241.673 143.896C245.016 148.577 250.897 149.886 254.791 146.833C258.686 143.78 259.134 137.508 255.79 132.84C252.447 128.171 246.566 126.85 242.672 129.903C238.777 132.955 238.368 139.214 241.673 143.896Z" fill="white"/>
<path id="Path_20" d="M232.526 121.425L194.491 98.5043C193.814 98.1871 193.007 98.4377 192.629 99.0827C192.25 99.7276 192.424 100.555 193.03 100.993L231.053 123.913C231.729 124.23 232.536 123.979 232.915 123.335C233.293 122.69 233.119 121.862 232.513 121.425H232.526Z" fill="#F2F2F2"/>
<path id="Path_21" d="M230.95 130.749L178.541 99.1585C177.864 98.8413 177.058 99.0918 176.679 99.7368C176.301 100.382 176.475 101.209 177.081 101.647L229.49 133.237C230.166 133.555 230.973 133.304 231.352 132.659C231.73 132.014 231.556 131.187 230.95 130.749Z" fill="#F2F2F2"/>
<path id="Path_22" d="M141.672 124.028C135.649 129.218 131.094 135.901 128.464 143.408C123.826 156.235 135.42 177.192 135.42 177.192L153.458 162.891" fill="#FF8F6F"/>
<path id="Path_23" d="M139.724 293.602L134.831 290.896L136.112 283.893C136.112 283.893 143.401 284.585 144.042 287.176" fill="#003B94"/>
<path id="Path_24" d="M141.518 293.499C142.62 292.82 143.773 292.217 144.913 291.614C147.744 290.062 151.831 288.459 153.573 285.547C154.304 284.342 154.212 282.809 153.342 281.699C150.78 278.595 145.169 283.7 142.299 280.263C141.736 279.583 141.467 268.796 141.467 268.796L130.552 271.746C130.552 271.746 128.707 293.422 128.912 294.756C129.117 296.09 132.871 297.321 132.871 297.321C133.988 297.084 135.055 296.649 136.022 296.039C137.162 295.205 136.124 285.034 137.585 286.458C139.045 287.881 139.686 293.448 139.686 293.448C140.292 293.54 140.907 293.557 141.518 293.499Z" fill="#F47B56"/>
<path id="Path_25" d="M160.568 304.081L155.674 301.413L156.955 294.41C156.955 294.41 164.244 295.103 164.885 297.694" fill="#003B94"/>
<path id="Path_26" d="M162.412 303.978C163.514 303.298 164.667 302.696 165.807 302.093C168.638 300.541 172.725 298.938 174.467 296.026C175.198 294.821 175.106 293.288 174.237 292.178C171.674 289.074 166.063 294.179 163.194 290.742C162.63 290.062 162.361 279.275 162.361 279.275L151.446 282.225C151.446 282.225 149.589 303.978 149.794 305.261C149.999 306.543 153.752 307.826 153.752 307.826C154.87 307.588 155.937 307.154 156.904 306.543C158.044 305.71 157.006 295.539 158.467 296.962C159.927 298.386 160.568 303.953 160.568 303.953C161.179 304.037 161.799 304.046 162.412 303.978Z" fill="#F47B56"/>
<path id="Path_27" d="M125.005 233.614L121.789 276.672C121.789 276.672 126.914 283.752 144.093 279.814L144.259 250.788" fill="#3E2928"/>
<path id="Path_28" d="M144.849 242.144C144.477 245.85 144.849 286.74 144.849 286.74C144.849 286.74 149.601 295.641 170.291 286.74L169.996 251.994" fill="#3E2928"/>
<path id="Path_29" d="M123.403 247.838C124.813 248.813 125.299 243.798 126.773 244.658C132.132 247.775 137.821 250.287 143.734 252.148H143.862C144.147 252.01 144.475 251.993 144.773 252.102C145.07 252.21 145.31 252.436 145.438 252.725C149.091 253.816 152.809 254.673 156.571 255.29C161.4 256.06 165.397 252.482 170.355 252.238C170.355 233.23 170.445 179.129 162.361 167.586L138.443 159.531C138.328 161.506 126.837 174.845 127.118 191.109C127.439 209.437 125.056 226.727 124.646 232.46C124.582 233.435 123.455 246.8 123.403 247.838Z" fill="#3E2928"/>
<path id="Path_30" d="M164.564 145.73L162.361 167.534C162.361 167.534 144.516 168.253 136.829 162.943V144.447" fill="#FF8F6F"/>
<path id="Path_31" d="M187.252 131.378L185.433 133.866C186.403 131.842 187.259 129.765 187.995 127.645C188.508 126.196 186.189 125.619 185.677 127.068L185.408 127.812C185.63 127.042 185.839 126.269 186.035 125.49C186.195 124.849 185.805 124.2 185.164 124.041C184.524 123.882 183.876 124.272 183.717 124.913C183.214 126.926 182.611 128.912 181.91 130.865C182.302 129.131 182.584 127.375 182.756 125.606C182.91 124.08 180.514 124.144 180.373 125.606C180.174 127.619 179.814 129.614 179.297 131.57C179.297 130.886 179.233 130.202 179.105 129.518C179.069 129.173 178.887 128.86 178.605 128.658C178.541 128.389 178.464 128.133 178.375 127.863C178.187 127.309 177.629 126.97 177.052 127.058C176.474 127.147 176.044 127.638 176.03 128.222L175.876 137.201C175.443 138.132 174.877 138.996 174.198 139.766C175.351 140.564 176.463 141.42 177.529 142.331C178.48 143.136 179.387 143.993 180.245 144.896C181.014 143.939 181.752 142.964 182.461 141.972C182.549 141.897 182.627 141.811 182.692 141.715C184.827 138.552 187.03 135.439 189.302 132.378C190.25 131.326 188.162 130.159 187.252 131.378Z" fill="#FFB5A9"/>
<path id="Path_32" d="M153.24 125.85C153.24 125.85 161.669 128.12 165.09 133.545C167.232 137.3 169.119 141.195 170.739 145.204L176.965 135.52C176.965 135.52 184.524 137.842 187.521 141.562C187.521 141.562 178.554 161.185 170.739 162.866C162.925 164.546 154.623 151.348 154.623 151.348C154.623 151.348 152.907 156.863 153.24 150.976" fill="#FF8F6F"/>
<path id="Path_33" d="M158.595 146.82C156.144 144.824 154.295 142.187 153.253 139.202C152.24 135.751 153.509 132.724 154.687 129.518C155.963 126.339 156.708 122.972 156.891 119.552C156.993 116.192 156.609 112.831 156.378 109.483C156.345 109.34 156.345 109.191 156.378 109.047C155.251 105.264 152.945 102.057 148.397 101.672C136.624 100.672 135.958 113.729 136.048 119.039C136.137 124.349 136.701 127.94 132.794 130.159C128.886 132.378 126.068 138.201 129.796 142.908C133.524 147.615 130.18 145.897 127.695 150.078C125.21 154.259 125.85 159.48 130.949 161.365C136.048 163.25 159.748 159.71 161.925 157.517C162.698 156.634 163.098 155.484 163.04 154.311C162.508 151.359 160.93 148.699 158.595 146.82Z" fill="#007F68"/>
<path id="Shape_7" fill-rule="evenodd" clip-rule="evenodd" d="M173.506 48.8802C173.325 45.3837 172.171 42.0075 170.176 39.1324C168.4 36.2591 165.777 34.0092 162.668 32.6937C161.076 31.9826 159.277 31.8911 157.621 32.4372C156.041 32.9971 154.738 34.1457 153.983 35.6437C153.073 37.4293 152.666 39.4288 152.804 41.4283C152.915 43.8067 153.471 46.1431 154.444 48.3159C155.415 50.5909 156.758 52.6887 158.415 54.5237C159.814 56.1552 161.567 57.445 163.54 58.2946C164.234 58.572 164.962 58.7575 165.705 58.8461C166.27 58.922 166.843 58.922 167.408 58.8461C167.85 58.7848 168.281 58.664 168.69 58.4869C168.949 58.3846 169.202 58.2646 169.445 58.1278L169.702 57.9483L168.152 55.0624L167.639 55.3446C167.118 55.5853 166.546 55.6912 165.974 55.6524C165.095 55.6617 164.223 55.4915 163.412 55.1522C161.08 54.082 159.16 52.2811 157.941 50.0217C156.411 47.7343 155.525 45.0755 155.379 42.3261C155.133 40.1398 155.891 37.9598 157.442 36.4004C158.911 35.1008 161.023 34.8313 162.771 35.7206C165.124 36.6998 167.11 38.3961 168.446 40.5689C169.933 42.7045 170.79 45.2157 170.919 47.8156C171.013 50.4407 170.44 51.5096 169.202 51.0222C168.761 50.831 168.392 50.5027 168.152 50.0859C167.868 49.6544 167.708 49.1529 167.69 48.6365L167.434 41.4283L164.872 40.4278V41.5693L164.641 41.1589C164.378 40.7834 164.068 40.4429 163.719 40.1456C163.309 39.7737 162.836 39.4783 162.323 39.2735C161.286 38.7631 160.041 38.958 159.21 39.7609C158.265 40.8045 157.828 42.2129 158.018 43.6087C158.072 45.3326 158.585 47.0108 159.504 48.4698C160.267 49.8125 161.445 50.8704 162.861 51.4839C163.454 51.7529 164.116 51.8335 164.757 51.7148C165.14 51.6585 165.502 51.5038 165.807 51.2659C165.927 51.134 166.031 50.9875 166.115 50.8298L166.422 51.4326C166.718 51.951 167.089 52.4222 167.524 52.8306C168.008 53.3332 168.593 53.7267 169.24 53.985C170.301 54.5503 171.609 54.3232 172.418 53.4335C173.341 52.1074 173.73 50.4811 173.506 48.8802ZM165.051 46.3535C165.136 47.031 164.946 47.7142 164.526 48.2517C164.133 48.6423 163.533 48.7355 163.04 48.4826C162.354 48.1849 161.782 47.6717 161.413 47.0204C160.964 46.3036 160.712 45.4806 160.683 44.6348C160.593 43.9624 160.799 43.2843 161.246 42.775C161.678 42.3849 162.306 42.3031 162.822 42.5698C163.48 42.8561 164.025 43.3521 164.372 43.9806C164.797 44.7006 165.031 45.5175 165.051 46.3535Z" fill="#F47B56"/>
<path id="Shape_8" fill-rule="evenodd" clip-rule="evenodd" d="M324.764 187.761C324.586 184.264 323.432 180.887 321.433 178.013C319.721 175.108 317.152 172.805 314.079 171.421C312.482 170.715 310.68 170.623 309.019 171.164C307.44 171.732 306.138 172.884 305.381 174.383C304.471 176.164 304.063 178.16 304.202 180.155C304.312 182.534 304.869 184.87 305.842 187.043C306.813 189.322 308.155 191.424 309.813 193.263C311.214 194.89 312.966 196.176 314.938 197.022C315.628 197.303 316.351 197.492 317.09 197.586C317.66 197.661 318.237 197.661 318.807 197.586C319.246 197.517 319.676 197.397 320.088 197.227C320.348 197.124 320.6 197.004 320.844 196.868L321.1 196.688L319.55 193.802L319.037 194.084C318.515 194.32 317.944 194.426 317.372 194.392C316.492 194.392 315.622 194.217 314.81 193.879C312.482 192.861 310.542 191.121 309.275 188.915C307.743 186.629 306.857 183.97 306.713 181.22C306.441 179.029 307.182 176.833 308.725 175.256C310.198 173.964 312.308 173.7 314.054 174.589C316.4 175.568 318.38 177.259 319.716 179.424C321.202 181.565 322.059 184.08 322.189 186.684C322.266 189.313 321.74 190.378 320.459 189.89C320.018 189.699 319.65 189.371 319.409 188.954C319.129 188.52 318.97 188.02 318.948 187.505L318.691 180.296L316.129 179.309V180.45L315.886 180.04C315.622 179.661 315.312 179.316 314.963 179.014C314.554 178.641 314.081 178.346 313.567 178.142C312.534 177.633 311.294 177.828 310.467 178.629C309.515 179.669 309.078 181.08 309.275 182.477C309.329 184.207 309.847 185.89 310.774 187.351C311.535 188.698 312.713 189.761 314.131 190.378C314.72 190.647 315.379 190.723 316.014 190.596C316.398 190.542 316.76 190.387 317.064 190.147C317.182 190.013 317.285 189.867 317.372 189.711L317.679 190.313C317.978 190.83 318.349 191.301 318.781 191.712C319.268 192.211 319.852 192.604 320.498 192.866C321.559 193.426 322.864 193.2 323.675 192.314C324.598 190.988 324.987 189.362 324.764 187.761ZM316.321 185.234C316.402 185.914 316.208 186.597 315.783 187.133C315.387 187.519 314.788 187.607 314.297 187.351C313.61 187.048 313.039 186.531 312.67 185.876C312.221 185.163 311.969 184.345 311.94 183.503C311.851 182.828 312.061 182.148 312.517 181.643C312.951 181.257 313.578 181.181 314.092 181.451C314.748 181.736 315.289 182.233 315.63 182.862C316.061 183.58 316.299 184.397 316.321 185.234Z" fill="#F47B56"/>
<g id="Path_34" style="mix-blend-mode:multiply" opacity="0.25">
<path d="M66.139 232.704L22.7744 208.001L-20.5774 232.755C-20.5774 232.755 3.54541 247.838 25.1316 260.511C38.8392 250.814 51.0223 239.72 66.139 232.704Z" fill="url(#paint4_linear_0_223)"/>
</g>
</g>
</g>
<defs>
<linearGradient id="paint0_linear_0_223" x1="192.715" y1="185.543" x2="181.685" y2="218.24" gradientUnits="userSpaceOnUse">
<stop stop-color="#78B46A"/>
<stop offset="0.03" stop-color="#7F3500"/>
<stop offset="1" stop-color="white"/>
</linearGradient>
<linearGradient id="paint1_linear_0_223" x1="120.536" y1="252.477" x2="101.981" y2="310.838" gradientUnits="userSpaceOnUse">
<stop stop-color="#78B46A"/>
<stop offset="0.03" stop-color="#7F3500"/>
<stop offset="1" stop-color="white"/>
</linearGradient>
<linearGradient id="paint2_linear_0_223" x1="74.7001" y1="130.002" x2="57.5362" y2="169.625" gradientUnits="userSpaceOnUse">
<stop stop-color="#78B46A"/>
<stop offset="0.03" stop-color="#7F3500"/>
<stop offset="1" stop-color="white"/>
</linearGradient>
<linearGradient id="paint3_linear_0_223" x1="315.656" y1="165.452" x2="308.951" y2="148.459" gradientUnits="userSpaceOnUse">
<stop stop-color="white" stop-opacity="0.01"/>
<stop offset="0.99" stop-color="#DC841E"/>
</linearGradient>
<linearGradient id="paint4_linear_0_223" x1="9.55504" y1="188.349" x2="-9.96715" y2="246.801" gradientUnits="userSpaceOnUse">
<stop stop-color="#78B46A"/>
<stop offset="0.03" stop-color="#7F3500"/>
<stop offset="1" stop-color="white"/>
</linearGradient>
</defs>
</svg>
