<svg width="419" height="589" viewBox="0 0 419 589" fill="none" xmlns="http://www.w3.org/2000/svg">
<g id="Group 2">
<path id="Path Copy" opacity="0.0991676" d="M-78.245 642.353L-527.256 376.729C-541.551 368.683 -553.804 355.501 -539.875 346.852L-89.2674 86.8897C-82.5126 82.6963 -72.2495 79.9444 -65.3637 83.9543L405.901 357.781C420.197 366.089 422.762 389.231 408.52 397.618L-19.075 641.933C-37.3366 652.537 -59.8353 652.697 -78.245 642.353Z" fill="#6862E6"/>
<path id="Path Copy 2" opacity="0.0991676" d="M-78.245 266.353L-527.256 0.729492C-541.551 -7.31652 -553.804 -20.4994 -539.875 -29.1482L-89.2674 -289.11C-82.5126 -293.304 -72.2494 -296.056 -65.3637 -292.046L405.901 -18.2192C420.197 -9.91114 422.762 13.231 408.52 21.6177L-19.075 265.933C-37.3366 276.537 -59.8353 276.697 -78.245 266.353Z" stroke="#1E1F36"/>
<path id="Path Copy 3" opacity="0.0991676" d="M-78.245 341.353L-527.256 75.7295C-541.551 67.6835 -553.804 54.5006 -539.875 45.8518L-89.2674 -214.11C-82.5126 -218.304 -72.2494 -221.056 -65.3637 -217.046L405.901 56.7808C420.197 65.0889 422.762 88.231 408.52 96.6177L-19.075 340.933C-37.3366 351.537 -59.8353 351.697 -78.245 341.353Z" stroke="#1E1F36"/>
</g>
</svg>
