<svg width="191" height="183" viewBox="0 0 191 183" fill="none" xmlns="http://www.w3.org/2000/svg">
<g id="Group 6">
<g id="Path" filter="url(#filter0_d_0_309)">
<path fill-rule="evenodd" clip-rule="evenodd" d="M50.9305 29.8806V83.7502L92.8987 107.786L140.286 79.7613V25.8917" fill="#FF9271"/>
</g>
<path id="Path_2" d="M92.8987 53.9167V107.786L140.286 79.7613V25.8917L92.8987 53.9167Z" fill="#DF5C34"/>
<path id="Path_3" d="M50.9305 29.8807L99.6244 2.125L140.286 25.8917L92.8987 53.9167L50.9305 29.8807Z" fill="#F47B56"/>
<path id="Shape" fill-rule="evenodd" clip-rule="evenodd" d="M108.22 17.6189C103.879 15.2418 98.9501 14.156 94.0132 14.4893C88.8335 14.5807 83.7728 16.0599 79.3577 18.7733C77.0421 20.0916 75.1999 22.1066 74.0924 24.5322C73.1692 26.6325 73.1692 29.0244 74.0924 31.1248C75.2104 33.5071 77.0719 35.4609 79.3961 36.6913C82.2759 38.3193 85.4507 39.357 88.7352 39.7439C92.3487 40.2441 96.0179 40.1792 99.6116 39.5515C102.909 39.0498 106.077 37.9083 108.938 36.1911C109.931 35.5841 110.854 34.8701 111.692 34.0619C112.328 33.4593 112.895 32.7883 113.383 32.0611C113.721 31.5216 113.997 30.9449 114.203 30.3424C114.346 29.9666 114.462 29.5808 114.549 29.188C114.557 29.0428 114.557 28.8972 114.549 28.7519L109.796 28.4826L109.617 29.2906C109.359 30.1046 108.921 30.8499 108.336 31.4711C107.461 32.4868 106.427 33.3531 105.274 34.0363C101.942 36.012 98.1285 37.0242 94.2566 36.9606C90.3677 37.1251 86.5095 36.206 83.1112 34.3056C79.9982 32.4715 78.3969 30.1885 78.3969 27.6233C78.3712 25.0067 79.8701 22.7536 82.8935 20.8639C86.2157 18.8378 90.021 17.7436 93.9108 17.6959C97.581 17.4541 101.244 18.2685 104.467 20.043C107.499 21.8387 108.131 23.288 106.363 24.3911C105.067 25.0889 103.508 25.0889 102.212 24.3911L93.8723 19.4787L90.2725 21.7233L91.5536 22.4928H90.849C90.1592 22.5312 89.4759 22.6474 88.8121 22.8391C87.9796 23.0554 87.1848 23.3971 86.4549 23.8524C84.9035 24.589 83.9086 26.148 83.8927 27.8669C83.9696 29.4574 84.9944 30.8426 86.9929 32.0226C89.1063 33.2372 91.5132 33.8452 93.9492 33.7798C96.3036 33.8259 98.6241 33.2129 100.649 32.0098C101.518 31.5175 102.243 30.8054 102.75 29.9448C103.055 29.482 103.232 28.9465 103.263 28.3928C103.234 28.1591 103.174 27.9303 103.083 27.713L104.057 27.79C104.949 27.8162 105.84 27.7256 106.709 27.5206C107.766 27.307 108.776 26.9075 109.694 26.3406C111.628 25.1735 112.448 23.7883 112.256 22.1978C112.064 20.6074 110.706 19.0811 108.22 17.6189ZM97.075 25.7506C97.9063 26.1117 98.5056 26.8606 98.6764 27.7515H98.7276C98.7408 28.5714 98.2682 29.3215 97.5234 29.6626C96.5394 30.2445 95.4119 30.5378 94.2695 30.5091C93.0809 30.5366 91.9073 30.2395 90.8746 29.6498C90.0535 29.2895 89.4803 28.5259 89.3629 27.6361C89.3822 26.7816 89.8766 26.0095 90.644 25.6352C91.5787 25.0751 92.6557 24.7989 93.7442 24.84C94.9156 24.8415 96.0654 25.1559 97.075 25.7506Z" fill="#3E2928"/>
</g>
<defs>
<filter id="filter0_d_0_309" x="0.930481" y="0.891724" width="189.355" height="181.895" filterUnits="userSpaceOnUse" color-interpolation-filters="sRGB">
<feFlood flood-opacity="0" result="BackgroundImageFix"/>
<feColorMatrix in="SourceAlpha" type="matrix" values="0 0 0 0 0 0 0 0 0 0 0 0 0 0 0 0 0 0 127 0" result="hardAlpha"/>
<feOffset dy="25"/>
<feGaussianBlur stdDeviation="25"/>
<feColorMatrix type="matrix" values="0 0 0 0 0.209139 0 0 0 0 0.0691446 0 0 0 0 0.478091 0 0 0 0.497159 0"/>
<feBlend mode="normal" in2="BackgroundImageFix" result="effect1_dropShadow_0_309"/>
<feBlend mode="normal" in="SourceGraphic" in2="effect1_dropShadow_0_309" result="shape"/>
</filter>
</defs>
</svg>
